<?xml version="1.0" encoding="UTF-8"?>
<svg id="Layer_1" xmlns="http://www.w3.org/2000/svg" xmlns:xlink="http://www.w3.org/1999/xlink" version="1.1" viewBox="0 0 48 48">
  <!-- Generator: Adobe Illustrator 29.3.1, SVG Export Plug-In . SVG Version: 2.1.0 Build 151)  -->
  <defs>
    <style>
      .st0 {
        fill: #fff;
      }

      .st0, .st1 {
        stroke: #333;
        stroke-miterlimit: 10;
      }

      .st2 {
        fill: url(#linear-gradient);
      }
    </style>
    <linearGradient id="linear-gradient" x1=".2" y1="-2031" x2="47.8" y2="-2031" gradientTransform="translate(0 -2009.2) scale(1 -1)" gradientUnits="userSpaceOnUse">
      <stop offset="0" stop-color="#0bf"/>
      <stop offset="0" stop-color="#03b6f9"/>
      <stop offset="0" stop-color="#1d95cb"/>
      <stop offset="0" stop-color="#3575a0"/>
      <stop offset="0" stop-color="#15d4ff"/>
      <stop offset="0" stop-color="#3dc6ee"/>
      <stop offset="0" stop-color="#43bfe6"/>
      <stop offset=".5" stop-color="#a17e95"/>
      <stop offset=".8" stop-color="#e4505b"/>
      <stop offset="1" stop-color="#ff3f45"/>
    </linearGradient>
  </defs>
  <path class="st0" d="M22.8,10.3c-9.5,0-17.1,7.6-17.1,17.1s7.6,17.1,17.1,17.1,17.1-7.6,17.1-17.1-7.6-17.1-17.1-17.1"/>
  <path class="st1" d="M24.6,27.8c-.3.5-1.1.5-1.8,0s-1-1.3-.7-1.8l6.4-9.6c.3-.5,1.1-.5,1.8,0s1,1.3.7,1.8l-6.4,9.6"/>
  <path class="st2" d="M46.2,18.8c-1.7-4.3-4.6-7.9-8.3-10.6-3.8-2.8-8.3-4.5-13-4.6-4.7-.2-9.3,1-13.4,3.6-4,2.5-7.2,6.1-9.1,10.4C.5,21.7-.2,26.6.6,31.2c.6,3.2,1.8,6.2,3.5,8.9h2.4c-1.7-2.6-2.9-5.4-3.4-8.3-.7-3.9-.2-8,1.2-11.6,1.5-3.8,4-6.8,7.2-9.2,3.2-2.3,7-3.7,10.9-3.8,3.9-.2,7.8,1,11.1,3.1,3.3,2.2,5.8,5.3,7.3,8.7,1.6,3.6,2,7.5,1.3,11.3-.7,3.7-2.4,7-5,9.7h7.3c1.4-2.4,2.4-5.1,2.9-7.7.9-4.6.6-9.1-1.1-13.5"/>
</svg>